<?xml version="1.0" encoding="UTF-8" standalone="no"?>
<!-- Created with Inkscape (http://www.inkscape.org/) -->

<svg
   width="210mm"
   height="297mm"
   viewBox="0 0 210 297"
   version="1.1"
   id="svg5"
   xml:space="preserve"
   inkscape:version="1.2.2 (732a01da63, 2022-12-09)"
   sodipodi:docname="desenho criart.svg"
   xmlns:inkscape="http://www.inkscape.org/namespaces/inkscape"
   xmlns:sodipodi="http://sodipodi.sourceforge.net/DTD/sodipodi-0.dtd"
   xmlns="http://www.w3.org/2000/svg"
   xmlns:svg="http://www.w3.org/2000/svg"><sodipodi:namedview
     id="namedview7"
     pagecolor="#ffffff"
     bordercolor="#000000"
     borderopacity="0.25"
     inkscape:showpageshadow="2"
     inkscape:pageopacity="0.0"
     inkscape:pagecheckerboard="0"
     inkscape:deskcolor="#d1d1d1"
     inkscape:document-units="mm"
     showgrid="false"
     inkscape:zoom="2.0409673"
     inkscape:cx="367.22783"
     inkscape:cy="364.28805"
     inkscape:window-width="1920"
     inkscape:window-height="995"
     inkscape:window-x="-9"
     inkscape:window-y="-9"
     inkscape:window-maximized="1"
     inkscape:current-layer="layer1" /><defs
     id="defs2"><rect
       x="226.92913"
       y="366.89764"
       width="272.31496"
       height="48.503937"
       id="rect543" /><rect
       x="-1029.5475"
       y="-1235.3156"
       width="289.91379"
       height="84.145706"
       id="rect1-7-4" /></defs><g
     inkscape:label="Camada 1"
     inkscape:groupmode="layer"
     id="layer1"><path
       style="fill:#808080;stroke-width:0.264583"
       d="m 56.763908,108.28505 91.116662,-0.275 c 8.91669,6.68233 6.63543,13.73181 0.73333,20.9 l -92.583325,0.73333 c -4.917826,-5.80541 -7.648822,-12.16747 0.733333,-21.35833 z"
       id="path277"
       sodipodi:nodetypes="ccccc" /><path
       style="fill:#008066;stroke-width:0.262862"
       d="m 160.70858,105.50911 c -2.49802,1.62184 -3.76582,3.52953 -4.25091,5.61909 -1.2343,2.3483 -1.2211,4.46472 -1.22803,6.58488 0.0163,3.02745 0.42861,4.95077 0.94464,6.58488 1.18983,3.52642 1.60519,3.66289 3.02287,5.70689 2.69134,1.49435 5.89721,1.93267 7.84056,0.87798 6.5673,-4.34922 9.94354,-11.3348 14.45308,-17.38408 l -5.76233,-0.87798 -8.97415,-7.11166 c -2.11563,-0.55982 -4.17993,-0.83336 -6.04573,0 z"
       id="path375"
       sodipodi:nodetypes="cccccccccc" /><path
       style="fill:#ff6600;stroke-width:0.265168"
       d="m 134.13328,108.10171 -0.18333,20.80832 h 9.35 l 0.18333,-20.80832 z"
       id="path431" /><text
       xml:space="preserve"
       transform="matrix(0.30482056,0,0,0.37130403,-1.7860156,-24.099144)"
       id="text541"
       style="font-size:29.3333px;white-space:pre;shape-inside:url(#rect543);display:inline;fill:#ff6600"><tspan
         x="226.92969"
         y="393.6601"
         id="tspan906"><tspan
           style="fill:#f2f2f2"
           id="tspan904">Design Studio</tspan></tspan></text><text
       xml:space="preserve"
       transform="matrix(0.70381146,0,0,1.0086874,774.24291,1310.764)"
       id="text1-5"
       style="font-style:normal;font-variant:normal;font-weight:bold;font-stretch:normal;font-size:48px;font-family:'Berlin Sans FB';-inkscape-font-specification:'Berlin Sans FB, Bold';font-variant-ligatures:normal;font-variant-caps:normal;font-variant-numeric:normal;font-variant-east-asian:normal;text-align:start;writing-mode:lr-tb;direction:ltr;white-space:pre;shape-inside:url(#rect1-7-4);display:inline;fill:#008066"><tspan
         x="-1029.5469"
         y="-1194.1543"
         id="tspan910">Cri<tspan
   style="fill:#ff6600"
   id="tspan908">Art</tspan></tspan></text></g></svg>
